<?xml version="1.0" encoding="UTF-8" standalone="no"?>
<!-- Created with Inkscape (http://www.inkscape.org/) -->

<svg
   xmlns:dc="http://purl.org/dc/elements/1.1/"
   xmlns:cc="http://creativecommons.org/ns#"
   xmlns:rdf="http://www.w3.org/1999/02/22-rdf-syntax-ns#"
   xmlns:svg="http://www.w3.org/2000/svg"
   xmlns="http://www.w3.org/2000/svg"
   xmlns:sodipodi="http://sodipodi.sourceforge.net/DTD/sodipodi-0.dtd"
   xmlns:inkscape="http://www.inkscape.org/namespaces/inkscape"
   id="svg2985"
   version="1.1"
   inkscape:version="0.48.5 r10040"
   width="450"
   height="356"
   sodipodi:docname="42719e9c5788ed811b0513469434f9e1.jpg">
  <metadata
     id="metadata2991">
    <rdf:RDF>
      <cc:Work
         rdf:about="">
        <dc:format>image/svg+xml</dc:format>
        <dc:type
           rdf:resource="http://purl.org/dc/dcmitype/StillImage" />
        <dc:title></dc:title>
      </cc:Work>
    </rdf:RDF>
  </metadata>
  <defs
     id="defs2989" />
  <sodipodi:namedview
     pagecolor="#ffffff"
     bordercolor="#666666"
     borderopacity="1"
     objecttolerance="10"
     gridtolerance="10"
     guidetolerance="10"
     inkscape:pageopacity="0"
     inkscape:pageshadow="2"
     inkscape:window-width="1536"
     inkscape:window-height="841"
     id="namedview2987"
     showgrid="false"
     inkscape:zoom="1.8370787"
     inkscape:cx="173.48812"
     inkscape:cy="196.94455"
     inkscape:window-x="-8"
     inkscape:window-y="-8"
     inkscape:window-maximized="1"
     inkscape:current-layer="layer2" />
  <g
     inkscape:groupmode="layer"
     id="layer1"
     inkscape:label="drawing"
     style="display:inline" />
  <g
     inkscape:groupmode="layer"
     id="layer2"
     inkscape:label="oneline"
     style="display:inline">
    <path
       style="fill:#000000;fill-opacity:1;stroke:#000000;stroke-width:1px;stroke-linecap:butt;stroke-linejoin:miter;stroke-opacity:1"
       d="m 132.62178,133.24088 c -0.63859,1.39179 -1.92967,6.14485 -2.10254,7.55503 -0.40096,3.27082 -8.44464,0.71487 -8.54418,2.86812 -0.43012,9.30442 -1.8133,18.84674 -3.61808,27.80196 -0.5215,2.58768 4.40653,1.77283 4.63149,4.34762 0.86138,9.85905 2.96867,20.1674 5.9225,29.87127 3.40706,11.19283 8.54396,20.63943 13.69267,28.70208 1.18444,1.85478 -1.27368,4.33529 -0.73096,5.32257 8.1301,14.78979 14.35803,16.92712 18.86095,18.69819 1.37925,0.54248 4.35942,0.89066 6.43367,0.12081 1.39956,4.12783 21.97074,18.44534 43.39659,21.17463 1.79083,0.22812 1.00076,4.07512 2.74775,4.19931 12.20815,0.86784 21.17127,1.61298 25.73728,0.89605 1.53705,-0.24134 1.32187,-2.8615 2.40567,-3.94531 1.818,-1.81799 12.08434,-0.63423 16.81157,-2.00226 5.52976,-1.60028 11.3525,-3.31985 17.21633,-6.76632 4.45021,-2.6156 8.69306,-6.98452 13.92125,-9.52779 2.19731,-1.06889 9.09972,0.71035 11.03143,-0.70529 6.94734,-5.09135 13.56851,-14.68934 19.42523,-21.6885 2.25638,-2.69652 0.45946,-3.87668 0.55393,-7.89967 4.56311,-3.78556 6.4876,-13.57625 11.30195,-22.37799 1.19461,-2.18403 3.27676,-0.92814 4.29403,-3.28249 1.49,-3.44847 2.7391,-7.05141 3.59884,-10.72618 0.58986,-2.52118 -2.85556,-4.54485 -2.46197,-7.13704 1.41799,-9.33902 0.39715,-19.61806 -0.90892,-27.9606 -0.62277,-3.97798 -3.74885,-12.21496 -3.28121,-15.09277 1.10696,-6.8122 7.59408,-6.43945 5.66376,-10.13244 -1.65609,-3.16834 -4.59974,-8.65074 -5.7505,-12.79619 -0.45089,-1.62426 -6.33996,0.10612 -8.1793,-1.75749 -9.71466,-9.8429 -16.74692,-18.18368 -26.55866,-28.124937 -12.58046,-12.746518 -30.94111,-18.7447 -46.10356,-22.002302 -2.43785,-0.523764 -2.58308,-4.790939 -5.04926,-5.108818 -8.88634,-1.145406 -17.15223,-1.95195 -26.08838,-0.750483 -3.22181,0.433173 -1.28563,4.116059 -4.56006,4.874246 -11.20248,2.59391 -24.77915,5.063921 -35.69414,10.808941 -11.99946,6.315818 -21.8571,16.340641 -30.498,24.346023 -0.66349,0.61469 -3.32744,-2.32339 -4.33405,-1.01989 -0.6614,0.85646 -1.97118,1.93059 -1.98528,2.61778 -0.0367,1.79149 2.48369,2.87664 0.73432,4.16661 -2.49585,3.64263 -8.64381,15.26673 -11.93216,22.43352 z"
       id="path3001"
       inkscape:connector-curvature="0"
       sodipodi:nodetypes="ssssssssscssssssssscsssssssssssssssssscs" />
  </g>
</svg>
